<svg xmlns="http://www.w3.org/2000/svg" xmlns:xlink="http://www.w3.org/1999/xlink" xmlns:lucid="lucid" width="1360" height="1520"><g transform="translate(0 0)" lucid:page-tab-id="0_0"><path d="M431.5 291v630" fill="none"/><path d="M431.5 291v10m0 10v20m0 10v20m0 10v20m0 10v20m0 10v20m0 10v20m0 10v20m0 10v20m0 10v20m0 10v20m0 10v20m0 10v20m0 10v20m0 10v20m0 10v20m0 10v20m0 10v20m0 10v20m0 10v20m0 10v20m0 10v10" stroke="#3d4752" stroke-width="2" fill="none"/><path d="M432.5 291h-2v-1h2z" fill="#3d4752"/><path d="M431.5 921v3" stroke="#3d4752" stroke-width="2" fill="none"/><path d="M180.43 290v631" fill="none"/><path d="M180.43 290v10.02m0 10v20.04m0 10.02v20.03m0 10.03v20.03m0 10v20.05m0 10.02v20.03m0 10.02v20.03m0 10.02v20.03m0 10.02v20.03m0 10v20.04m0 10.02v20.03m0 10v20.04m0 10.02v20.03m0 10v20.03m0 10.02v20.03m0 10.02v20.03m0 10.02v20.03m0 10v20.05m0 10v20.04m0 10.02v20.02m0 10.02v20.03m0 10V921M180.43 921v3" stroke="#3d4752" stroke-width="2" fill="none"/><path d="M200.18 159.75c0 10.9-8.85 19.75-19.75 19.75s-19.75-8.84-19.75-19.75c0-10.9 8.84-19.75 19.75-19.75 10.9 0 19.75 8.84 19.75 19.75z" stroke="#3d4752" stroke-width="2" fill="#fff"/><path d="M130.2 142.5c0-1.38 1.13-2.5 2.5-2.5h95.44c1.38 0 2.5 1.12 2.5 2.5v153c0 1.38-1.12 2.5-2.5 2.5H132.7c-1.37 0-2.5-1.12-2.5-2.5z" fill="none"/><path d="M180.43 179.5v52.8c0 1.38.7 3.38 1.55 4.46L230.64 298m-50.2-63.2L130.2 298m0-98.75h100.44" stroke="#3d4752" stroke-width="2" fill="none"/><path d="M732.77 290v631" fill="none"/><path d="M732.77 290v10.02m0 10v20.04m0 10.02v20.03m0 10.03v20.03m0 10v20.05m0 10.02v20.03m0 10.02v20.03m0 10.02v20.03m0 10.02v20.03m0 10v20.04m0 10.02v20.03m0 10v20.04m0 10.02v20.03m0 10v20.03m0 10.02v20.03m0 10.02v20.03m0 10.02v20.03m0 10v20.05m0 10v20.04m0 10.02v20.02m0 10.02v20.03m0 10V921M732.77 921v3" stroke="#3d4752" stroke-width="2" fill="none"/><path d="M1034.04 291v627.5c0 1.38 1.12 2.5 2.5 2.5h2.54" fill="none"/><path d="M1034.04 291v9.96m0 9.96v19.92m0 9.96v19.92m0 9.96v19.92m0 9.96v19.92m0 9.96v19.93m0 9.96v19.92m0 9.96v19.93m0 9.96V540m0 9.97v19.92m0 9.95v19.92m0 9.96v19.92m0 9.96v19.93m0 9.96v19.9m0 9.97v19.92m0 9.95v19.92m0 9.96v19.93m0 9.96v19.92m0 9.96v19.92m0 9.96v19.92m0 9.96v19.92m0 9.96v9.96l.73 1.77 1.77.73h2.54" stroke="#3d4752" stroke-width="2" fill="none"/><path d="M1035.04 291h-2v-1h2z" fill="#3d4752"/><path d="M1039.08 921l1.36 2.68" stroke="#3d4752" stroke-width="2" fill="none"/><path d="M331.06 172.5c0-1.38 1.12-2.5 2.5-2.5H529.4c1.4 0 2.5 1.12 2.5 2.5v115c0 1.38-1.1 2.5-2.5 2.5H333.57c-1.38 0-2.5-1.12-2.5-2.5z" stroke="#3d4752" stroke-width="2" fill="#fff"/><use xlink:href="#a" transform="matrix(1,0,0,1,331.06382978723406,170) translate(48.104609374999995 66.38671875)"/><path d="M632.34 172.5c0-1.38 1.12-2.5 2.5-2.5H830.7c1.37 0 2.5 1.12 2.5 2.5v115c0 1.38-1.13 2.5-2.5 2.5H634.83c-1.38 0-2.5-1.12-2.5-2.5z" stroke="#3d4752" stroke-width="2" fill="#fff"/><use xlink:href="#b" transform="matrix(1,0,0,1,632.3404255319149,170) translate(52.587031249999995 66.38671875)"/><path d="M933.62 172.5c0-1.38 1.12-2.5 2.5-2.5h195.85c1.38 0 2.5 1.12 2.5 2.5v115c0 1.38-1.12 2.5-2.5 2.5H936.12c-1.38 0-2.5-1.12-2.5-2.5z" stroke="#3d4752" stroke-width="2" fill="#fff"/><use xlink:href="#c" transform="matrix(1,0,0,1,933.6170212765958,170) translate(78.41369140625001 66.38671875)"/><path d="M418.94 402.5c0-1.38 1.12-2.5 2.5-2.5h20.1c1.38 0 2.5 1.12 2.5 2.5v395c0 1.38-1.12 2.5-2.5 2.5h-20.1c-1.38 0-2.5-1.12-2.5-2.5zM1021.5 482.5c0-1.38 1.1-2.5 2.5-2.5h20.1c1.38 0 2.5 1.12 2.5 2.5v275c0 1.38-1.12 2.5-2.5 2.5H1024c-1.4 0-2.5-1.12-2.5-2.5zM720.2 422.5c0-1.38 1.13-2.5 2.5-2.5h20.12c1.38 0 2.5 1.12 2.5 2.5v375c0 1.38-1.12 2.5-2.5 2.5h-20.1c-1.4 0-2.5-1.12-2.5-2.5z" stroke="#3d4752" stroke-width="2" fill="#ccc"/><path d="M399.8 401.04v2h-32.85v-2zm-219.37-.1v-2h51.1v2zM414.8 402.04l-14.26 4.63v-9.27z" fill="#3d4752"/><path d="M418.04 402.04l-18.5 6v-12zm-16.5 3.26l10.03-3.26-10.03-3.26z" fill="#3d4752"/><use xlink:href="#d" transform="matrix(1,0,0,1,231.5197334613665,383.1512089404766) translate(0.0049999999999954525 13.88671875)"/><use xlink:href="#e" transform="matrix(1,0,0,1,231.5197334613665,383.1512089404766) translate(51.491328124999995 13.88671875)"/><use xlink:href="#f" transform="matrix(1,0,0,1,231.5197334613665,383.1512089404766) translate(18.804804687499995 31.728515625)"/><use xlink:href="#g" transform="matrix(1,0,0,1,231.5197334613665,383.1512089404766) translate(37.402460937499995 31.728515625)"/><path d="M720.17 801.02h-4.22v-2h4.22zm-12.66 0h-8.43v-2h8.44zm-16.87 0h-8.44v-2h8.43zm-16.9 0h-1.38v-2h1.4zm-180.87-5.98h-.1v-2h.1zm-8.42 0h-8.32v-2h8.32zm-16.64 0h-8.3v-2h8.3zm-16.63 0H447v-2h4.17zM720.94 799.27l1.77.73h.47v1.02h-3v-2h.67z" fill="#3d4752"/><path d="M464.73 784.72l-15.76 9.32 15.76 9.32-1.02 1.73-18.66-11.06L463.7 783z" fill="#3d4752"/><use xlink:href="#h" transform="matrix(1,0,0,1,582.6074461634951,786.4565783230668) translate(0 16.458333333333336)"/><use xlink:href="#i" transform="matrix(1,0,0,1,492.86232897599507,788.1085965522334) translate(0.0049999999999954525 13.88671875)"/><use xlink:href="#j" transform="matrix(1,0,0,1,492.86232897599507,788.1085965522334) translate(57.977656249999995 13.88671875)"/><use xlink:href="#k" transform="matrix(1,0,0,1,492.86232897599507,788.1085965522334) translate(104.7442578125 13.88671875)"/><path d="M719.2 635.14h-3.8v-2h3.8zm-11.4 0h-7.6v-2h7.6zm-15.22 0h-7.62v-2h7.62zm-15.23 0h-7.6v-2h7.6zm-15.22 0h-7.6v-2h7.6zm-15.22 0h-7.6v-2h7.6zm-119.7-.2h-.02v-2h.02zm-8.46 0h-8.44v-2h8.44zm-16.88 0h-8.44v-2h8.44zm-16.88 0h-8.44v-2h8.44zm-16.87 0h-8.43v-2h8.44zm-16.87 0H447v-2h4.23zM720.2 635.14h-1v-2h1z" fill="#3d4752"/><path d="M464.73 624.63l-15.76 9.32 15.76 9.32-1.02 1.73-18.66-11.05 18.67-11.04z" fill="#3d4752"/><use xlink:href="#l" transform="matrix(1,0,0,1,527.1960189601064,625.1255216244933) translate(0 13.88671875)"/><use xlink:href="#m" transform="matrix(1,0,0,1,527.1960189601064,625.1255216244933) translate(62.173828125 13.88671875)"/><path d="M1020.5 753.52h-3.82v-2h3.8zm-11.43 0h-7.6v-2h7.6zm-15.22 0h-7.6v-2h7.6zm-15.22 0h-7.6v-2h7.6zm-15.22 0h-7.6v-2h7.6zm-15.2 0h-7.62v-2h7.6zm-15.23 0h-4.64v-2h4.64zm-96.07-.18h-8.44v-2h8.44zm-16.88 0h-8.44v-2h8.44zm-16.88 0h-8.44v-2h8.44zm-16.88 0h-8.44v-2h8.44zm-16.88 0h-8.44v-2h8.44zm-16.88 0h-4.22v-2h4.22zM1021.5 753.52h-1v-2h1z" fill="#3d4752"/><path d="M766 743.02l-15.75 9.32 15.76 9.32-1 1.72-18.68-11.04L765 741.3z" fill="#3d4752"/><use xlink:href="#n" transform="matrix(1,0,0,1,838.4792553297875,741.631733995876) translate(0 14.4)"/><use xlink:href="#o" transform="matrix(1,0,0,1,838.4792553297875,741.631733995876) translate(51.9 14.4)"/><path d="M80 82.5c0-1.38 1.12-2.5 2.5-2.5h435c1.38 0 2.5 1.12 2.5 2.5v15c0 1.38-.8 3.3-1.77 4.27l-6.46 6.46c-.98.98-2.9 1.77-4.27 1.77h-425c-1.38 0-2.5-1.12-2.5-2.5z" fill="#fff"/><path d="M80 82.5c0-1.38 1.12-2.5 2.5-2.5h1175c1.38 0 2.5 1.12 2.5 2.5v835c0 1.38-1.12 2.5-2.5 2.5H82.5c-1.38 0-2.5-1.12-2.5-2.5z" stroke="#3d4752" stroke-width="2" fill="none"/><path d="M520 80v20l-10 10H80" stroke="#3d4752" stroke-width="2" fill="#fff"/><use xlink:href="#p" transform="matrix(1,0,0,1,88,80) translate(0 22.356770833333336)"/><use xlink:href="#q" transform="matrix(1,0,0,1,88,80) translate(143.84114583333334 22.356770833333336)"/><path d="M280.85 522.5c0-1.38 1.12-2.5 2.5-2.5h155c1.38 0 2.5 1.12 2.5 2.5v15c0 1.38-.8 3.3-1.77 4.27l-6.46 6.46c-.98.98-2.9 1.77-4.27 1.77h-145c-1.38 0-2.5-1.12-2.5-2.5z" fill="#fff"/><path d="M440.85 520v20l-10 10h-150" stroke="#3d4752" stroke-width="2" fill="none"/><path d="M280.85 522.5c0-1.38 1.12-2.5 2.5-2.5h873.72c1.4 0 2.5 1.12 2.5 2.5v315c0 1.38-1.1 2.5-2.5 2.5H283.35c-1.38 0-2.5-1.12-2.5-2.5zM280.85 716.92h20m15 0h20m15 0h20m15 0h20m15 0h20m15 0h20m15 0h20m15 0h20m15 0h20m15 0h20m15 0h20m15 0h20m15 0h20m15 0h20m15 0h20m15 0h20m15 0h20m15 0h20m15 0h20m15 0h20m15 0h20m15 0h20m15 0h20m15 0h20m15 0h20m15 0h3.72" stroke="#3d4752" stroke-width="2" fill="none"/><use xlink:href="#r" transform="matrix(1,0,0,1,288.8510638297872,520) translate(18.83203125 22.356770833333336)"/><use xlink:href="#s" transform="matrix(1,0,0,1,288.8510638297872,520) translate(60.27734375 22.356770833333336)"/><use xlink:href="#t" transform="matrix(1,0,0,1,292.8510638297872,558) translate(0 19.90451388888889)"/><use xlink:href="#u" transform="matrix(1,0,0,1,292.8510638297872,724.9230769230769) translate(0 19.90451388888889)"/><path d="M700.98 443.8v2l-58.05-.02v-2zm-255.94 1.8v-2h46v2zM445.04 445.6h-1v-2h1zM715.98 444.8l-14.27 4.63v-9.27z" fill="#3d4752"/><path d="M719.2 444.8l-18.5 6V438.8zm-16.5 3.25l10.04-3.26-10.03-3.27z" fill="#3d4752"/><use xlink:href="#v" transform="matrix(1,0,0,1,491.0507450765456,435.68757637882686) translate(0 13.88671875)"/><use xlink:href="#w" transform="matrix(1,0,0,1,491.0507450765456,435.68757637882686) translate(45.5625 13.88671875)"/><use xlink:href="#x" transform="matrix(1,0,0,1,491.0507450765456,435.68757637882686) translate(87.521484375 13.88671875)"/><path d="M801.83 489.63h-55.5v-2h55.5zm200.42 0h-67.7v-2h67.7zM746.32 489.63h-1v-2h1zM1017.25 488.63l-14.26 4.64V484z" fill="#3d4752"/><path d="M1020.5 488.63l-18.5 6v-12zm-16.5 3.26l10.02-3.27-10.03-3.26z" fill="#3d4752"/><g><use xlink:href="#y" transform="matrix(1,0,0,1,801.8296288622506,479.7108809404487) translate(0 13.88671875)"/></g><path d="M1020.5 595.26h-4v-2h4zm-12.02 0h-8v-2h8zm-16 0h-8.02v-2h8zm-16.02 0h-8v-2h8zm-16.02 0h-8v-2h8zm-145.85 0h-6.27v-2h6.26zm-14.28 0h-8v-2h8zm-16 0h-8.02v-2h8zm-16.02 0h-8v-2h8zm-16 0h-4.02v-2h4zM1021.5 595.26h-1v-2h1z" fill="#3d4752"/><path d="M766 584.94l-15.75 9.32 15.76 9.32-1 1.72-18.68-11.04L765 583.22z" fill="#3d4752"/><g><use xlink:href="#i" transform="matrix(1,0,0,1,814.5858959547875,585.3410055655331) translate(0 13.88671875)"/><use xlink:href="#z" transform="matrix(1,0,0,1,814.5858959547875,585.3410055655331) translate(57.97265625 13.88671875)"/><use xlink:href="#A" transform="matrix(1,0,0,1,814.5858959547875,585.3410055655331) translate(100.1162109375 13.88671875)"/></g><defs><path d="M1178 0L926-761 675 0H408L27-1489h279L561-392l260-788h212l259 790 276-1099h257L1446 0h-268" id="B"/><path d="M94-548c0-302 191-568 483-568 311 0 493 270 482 633H370c7 207 93 311 256 311 93 0 196-46 308-137l103 144C907-40 760 22 595 22 293 22 94-237 94-548zm282-120h403c-18-170-85-255-202-255s-184 85-201 255" id="C"/><path d="M1113-589c0 325-126 613-421 611-108 0-198-32-271-96V0H168v-1580h263v560c76-64 164-96 265-96 269 0 417 244 417 527zM431-818v553c64 56 127 84 189 84 145 0 218-134 218-402 0-214-68-321-203-321-67 0-135 29-204 86" id="D"/><path d="M919-805c192 25 318 168 317 382 0 282-182 423-545 423H205v-1489h394c214 0 356 50 427 149 39 55 59 132 59 229 0 134-55 236-166 306zM695-219c182-5 263-51 263-220 0-149-88-223-263-223H478v443h217zM478-881h163c121 0 181-69 181-207 0-121-70-182-211-182H478v389" id="E"/><path d="M431-770V0H168v-1094h263v110c156-133 232-175 396-74l-84 220c-129-52-218-25-312 68" id="F"/><path d="M578-1116c196 0 337 93 423 279 40 87 60 183 60 290 0 225-77 390-230 494-74 50-158 75-253 75-197 0-338-93-424-279-40-87-60-183-60-290 0-226 77-391 231-495 73-49 158-74 253-74zm0 194c-139 0-208 125-208 375s69 375 208 375c138 0 207-125 207-375s-69-375-207-375" id="G"/><path d="M980 0L767-713 556 0H350L25-1094h259l176 672 197-672h231l200 672 173-672h248L1186 0H980" id="H"/><path d="M925-326c0 213-197 348-437 348C341 22 194-16 47-93l93-183c121 69 236 103 345 103s164-42 164-127c0-41-24-75-72-100-19-10-61-25-126-44-165-49-270-109-315-179-27-41-40-94-40-158 0-210 193-335 432-335 111 0 229 34 354 103l-83 176c-101-56-191-84-271-84-107 0-161 40-161 121 0 37 23 66 70 89 16 12 285 99 327 123 105 60 161 144 161 262" id="I"/><g id="a"><use transform="matrix(0.0087890625,0,0,0.0087890625,0,0)" xlink:href="#B"/><use transform="matrix(0.0087890625,0,0,0.0087890625,15.71484375,0)" xlink:href="#C"/><use transform="matrix(0.0087890625,0,0,0.0087890625,25.8486328125,0)" xlink:href="#D"/><use transform="matrix(0.0087890625,0,0,0.0087890625,36.45703125,0)" xlink:href="#E"/><use transform="matrix(0.0087890625,0,0,0.0087890625,48.1904296875,0)" xlink:href="#F"/><use transform="matrix(0.0087890625,0,0,0.0087890625,55.01953125,0)" xlink:href="#G"/><use transform="matrix(0.0087890625,0,0,0.0087890625,65.1708984375,0)" xlink:href="#H"/><use transform="matrix(0.0087890625,0,0,0.0087890625,78.6533203125,0)" xlink:href="#I"/><use transform="matrix(0.0087890625,0,0,0.0087890625,87.4775390625,0)" xlink:href="#C"/><use transform="matrix(0.0087890625,0,0,0.0087890625,97.611328125,0)" xlink:href="#F"/></g><path d="M491-632h326l-163-487zM1028 0L887-418H421L279 0H11l527-1489h248L1312 0h-284" id="J"/><path d="M690-1116c279 0 423 232 423 527 0 261-67 439-196 539C782 54 551 41 431-69v481H168v-1506h253v93c71-77 160-115 269-115zM431-810v545c64 56 127 84 189 84 145 0 218-134 218-402 0-214-68-321-203-321-71 0-139 31-204 94" id="K"/><path d="M446 22C216 22 155-90 155-336v-1244h263v1196c0 75 6 126 18 153 27 62 110 61 177 31l67 172C603 5 525 22 446 22" id="L"/><path d="M431-1094V0H168v-1094h263zm0-190H168v-296h263v296" id="M"/><path d="M94-547c0-294 207-569 494-569 131 0 260 50 386 150L872-811c-96-74-188-111-277-112-163-2-225 186-225 376 0 251 82 377 246 377 81 0 168-36 260-107l103 137C862-32 733 22 593 22 292 22 94-208 94-547" id="N"/><path d="M711-687c-7-170-35-229-188-230-74 0-147 18-220 53l-88-179c111-51 229-76 353-76 303 0 405 148 405 459V0H717v-81C651-13 566 21 461 21 236 21 81-120 81-346c0-158 85-260 254-311 103-31 245-40 376-30zM326-329c0 101 84 155 189 155 91 0 157-36 196-109v-226c-23-4-49-6-78-6-205 0-307 62-307 186" id="O"/><path d="M503-384c-2 129 8 204 107 204 41 0 91-13 150-38l66 171C737-1 639 22 533 22c-230-2-293-122-293-358v-559H42v-199h198v-395h263v395h265v199H503v511" id="P"/><path d="M783-1116c173 0 283 89 283 264V0H803v-754c0-92-46-138-139-138-73 0-151 30-233 91V0H168v-1094h263v93c117-77 234-115 352-115" id="Q"/><g id="b"><use transform="matrix(0.0087890625,0,0,0.0087890625,0,0)" xlink:href="#J"/><use transform="matrix(0.0087890625,0,0,0.0087890625,11.9091796875,0)" xlink:href="#K"/><use transform="matrix(0.0087890625,0,0,0.0087890625,22.517578125,0)" xlink:href="#K"/><use transform="matrix(0.0087890625,0,0,0.0087890625,33.1259765625,0)" xlink:href="#L"/><use transform="matrix(0.0087890625,0,0,0.0087890625,38.8212890625,0)" xlink:href="#M"/><use transform="matrix(0.0087890625,0,0,0.0087890625,44.0859375,0)" xlink:href="#N"/><use transform="matrix(0.0087890625,0,0,0.0087890625,52.6904296875,0)" xlink:href="#O"/><use transform="matrix(0.0087890625,0,0,0.0087890625,62.595703125,0)" xlink:href="#P"/><use transform="matrix(0.0087890625,0,0,0.0087890625,69.697265625,0)" xlink:href="#M"/><use transform="matrix(0.0087890625,0,0,0.0087890625,74.9619140625,0)" xlink:href="#G"/><use transform="matrix(0.0087890625,0,0,0.0087890625,85.11328125,0)" xlink:href="#Q"/></g><path d="M452 0H163v-278h289V0zM163-1094h289v278H163v-278" id="R"/><path d="M718 23c-304 0-533-125-532-410v-1102h272v1066c0 151 87 227 260 227 174 0 261-76 261-227v-1066h272v1102c8 267-231 410-533 410" id="S"/><g id="c"><use transform="matrix(0.0087890625,0,0,0.0087890625,0,0)" xlink:href="#R"/><use transform="matrix(0.0087890625,0,0,0.0087890625,5.4052734375,0)" xlink:href="#S"/><use transform="matrix(0.0087890625,0,0,0.0087890625,18.03515625,0)" xlink:href="#I"/><use transform="matrix(0.0087890625,0,0,0.0087890625,26.859375,0)" xlink:href="#C"/><use transform="matrix(0.0087890625,0,0,0.0087890625,36.9931640625,0)" xlink:href="#F"/></g><path fill="#3d4752" d="M538-189h170V0H95v-189h170v-1111H95v-189h613v189H538v1111" id="T"/><path fill="#3d4752" d="M783-1116c173 0 283 89 283 264V0H803v-754c0-92-46-138-139-138-73 0-151 30-233 91V0H168v-1094h263v93c117-77 234-115 352-115" id="U"/><path fill="#3d4752" d="M690-1116c279 0 423 232 423 527 0 261-67 439-196 539C782 54 551 41 431-69v481H168v-1506h253v93c71-77 160-115 269-115zM431-810v545c64 56 127 84 189 84 145 0 218-134 218-402 0-214-68-321-203-321-71 0-139 31-204 94" id="V"/><path fill="#3d4752" d="M437 22c-177 0-283-91-283-265v-851h263v755c0 91 46 137 139 137 75 0 152-32 233-95v-797h263V0H789v-93C670-16 552 22 437 22" id="W"/><path fill="#3d4752" d="M503-384c-2 129 8 204 107 204 41 0 91-13 150-38l66 171C737-1 639 22 533 22c-230-2-293-122-293-358v-559H42v-199h198v-395h263v395h265v199H503v511" id="X"/><g id="d"><use transform="matrix(0.0087890625,0,0,0.0087890625,0,0)" xlink:href="#T"/><use transform="matrix(0.0087890625,0,0,0.0087890625,7.0576171875,0)" xlink:href="#U"/><use transform="matrix(0.0087890625,0,0,0.0087890625,17.7802734375,0)" xlink:href="#V"/><use transform="matrix(0.0087890625,0,0,0.0087890625,28.388671875,0)" xlink:href="#W"/><use transform="matrix(0.0087890625,0,0,0.0087890625,39.111328125,0)" xlink:href="#X"/></g><path fill="#3d4752" d="M925-326c0 213-197 348-437 348C341 22 194-16 47-93l93-183c121 69 236 103 345 103s164-42 164-127c0-41-24-75-72-100-19-10-61-25-126-44-165-49-270-109-315-179-27-41-40-94-40-158 0-210 193-335 432-335 111 0 229 34 354 103l-83 176c-101-56-191-84-271-84-107 0-161 40-161 121 0 37 23 66 70 89 16 12 285 99 327 123 105 60 161 144 161 262" id="Y"/><path fill="#3d4752" d="M94-548c0-302 191-568 483-568 311 0 493 270 482 633H370c7 207 93 311 256 311 93 0 196-46 308-137l103 144C907-40 760 22 595 22 293 22 94-237 94-548zm282-120h403c-18-170-85-255-202-255s-184 85-201 255" id="Z"/><path fill="#3d4752" d="M431-770V0H168v-1094h263v110c156-133 232-175 396-74l-84 220c-129-52-218-25-312 68" id="aa"/><path fill="#3d4752" d="M711-687c-7-170-35-229-188-230-74 0-147 18-220 53l-88-179c111-51 229-76 353-76 303 0 405 148 405 459V0H717v-81C651-13 566 21 461 21 236 21 81-120 81-346c0-158 85-260 254-311 103-31 245-40 376-30zM326-329c0 101 84 155 189 155 91 0 157-36 196-109v-226c-23-4-49-6-78-6-205 0-307 62-307 186" id="ab"/><path fill="#3d4752" d="M1420-1116c172-1 282 89 282 264V0h-263v-754c0-92-46-138-138-138-75 0-153 30-235 90V0H803v-754c0-92-46-138-138-138-71 0-149 30-234 90V0H168v-1094h263v93c117-77 234-115 353-115 121 0 206 45 254 134 124-89 251-134 382-134" id="ac"/><g id="e"><use transform="matrix(0.0087890625,0,0,0.0087890625,0,0)" xlink:href="#W"/><use transform="matrix(0.0087890625,0,0,0.0087890625,10.72265625,0)" xlink:href="#Y"/><use transform="matrix(0.0087890625,0,0,0.0087890625,19.546875,0)" xlink:href="#Z"/><use transform="matrix(0.0087890625,0,0,0.0087890625,29.6806640625,0)" xlink:href="#aa"/><use transform="matrix(0.0087890625,0,0,0.0087890625,36.8701171875,0)" xlink:href="#U"/><use transform="matrix(0.0087890625,0,0,0.0087890625,47.5927734375,0)" xlink:href="#ab"/><use transform="matrix(0.0087890625,0,0,0.0087890625,57.498046875,0)" xlink:href="#ac"/><use transform="matrix(0.0087890625,0,0,0.0087890625,73.810546875,0)" xlink:href="#Z"/></g><path fill="#3d4752" d="M100-389c0-203 137-366 293-436-121-107-182-224-182-349 0-194 184-334 409-334 188 0 317 70 386 210 23 47 35 103 35 168H776c1-89-59-150-148-150-70 0-136 49-136 117 0 47 34 107 101 178l451 480c46-73 48-156 45-276h236c13 182-23 326-102 469L1516 1l-352-1-109-118C935-21 785 27 606 27c-213 0-362-71-448-214-39-64-58-131-58-202zm453-269c-118 56-176 136-176 239 0 134 106 220 240 220 93 0 181-34 266-103" id="ad"/><use transform="matrix(0.0087890625,0,0,0.0087890625,0,0)" xlink:href="#ad" id="f"/><path fill="#3d4752" d="M980 0L767-713 556 0H350L25-1094h259l176 672 197-672h231l200 672 173-672h248L1186 0H980" id="ae"/><path fill="#3d4752" d="M578-1116c196 0 337 93 423 279 40 87 60 183 60 290 0 225-77 390-230 494-74 50-158 75-253 75-197 0-338-93-424-279-40-87-60-183-60-290 0-226 77-391 231-495 73-49 158-74 253-74zm0 194c-139 0-208 125-208 375s69 375 208 375c138 0 207-125 207-375s-69-375-207-375" id="af"/><path fill="#3d4752" d="M94-505c0-321 128-611 419-611 101 0 188 30 263 91v-555h263V-1H787v-91C712-16 620 22 509 22c-171 0-293-85-364-254-34-81-51-172-51-273zm682 228v-551c-64-56-127-84-189-84-145 0-218 134-218 401 0 213 68 320 203 320 69 0 137-29 204-86" id="ag"/><g id="g"><use transform="matrix(0.0087890625,0,0,0.0087890625,0,0)" xlink:href="#V"/><use transform="matrix(0.0087890625,0,0,0.0087890625,10.6083984375,0)" xlink:href="#ab"/><use transform="matrix(0.0087890625,0,0,0.0087890625,20.513671875,0)" xlink:href="#Y"/><use transform="matrix(0.0087890625,0,0,0.0087890625,29.337890625,0)" xlink:href="#Y"/><use transform="matrix(0.0087890625,0,0,0.0087890625,38.162109375,0)" xlink:href="#ae"/><use transform="matrix(0.0087890625,0,0,0.0087890625,51.64453125,0)" xlink:href="#af"/><use transform="matrix(0.0087890625,0,0,0.0087890625,61.7958984375,0)" xlink:href="#aa"/><use transform="matrix(0.0087890625,0,0,0.0087890625,68.625,0)" xlink:href="#ag"/></g><g id="i"><use transform="matrix(0.0087890625,0,0,0.0087890625,0,0)" xlink:href="#aa"/><use transform="matrix(0.0087890625,0,0,0.0087890625,6.8291015625,0)" xlink:href="#Z"/><use transform="matrix(0.0087890625,0,0,0.0087890625,16.962890625,0)" xlink:href="#X"/><use transform="matrix(0.0087890625,0,0,0.0087890625,24.064453125,0)" xlink:href="#W"/><use transform="matrix(0.0087890625,0,0,0.0087890625,34.787109375,0)" xlink:href="#aa"/><use transform="matrix(0.0087890625,0,0,0.0087890625,41.9765625,0)" xlink:href="#U"/></g><g id="j"><use transform="matrix(0.0087890625,0,0,0.0087890625,0,0)" xlink:href="#Z"/><use transform="matrix(0.0087890625,0,0,0.0087890625,10.1337890625,0)" xlink:href="#aa"/><use transform="matrix(0.0087890625,0,0,0.0087890625,17.3232421875,0)" xlink:href="#aa"/><use transform="matrix(0.0087890625,0,0,0.0087890625,24.15234375,0)" xlink:href="#af"/><use transform="matrix(0.0087890625,0,0,0.0087890625,34.3037109375,0)" xlink:href="#aa"/></g><path fill="#3d4752" d="M1040 13c1 285-186 425-480 425-155 0-288-42-397-127l107-153c86 57 175 86 266 86 162 0 243-86 243-258v-81C700-18 607 20 498 20c-167 0-286-84-355-253-33-79-49-170-49-272 0-252 66-428 193-533 131-108 361-101 490 7v-64h263V13zM777-276v-551c-65-56-128-84-191-84-145 0-217 133-217 399 0 214 67 321 202 321 71 0 139-28 206-85" id="ah"/><g id="k"><use transform="matrix(0.0087890625,0,0,0.0087890625,0,0)" xlink:href="#ac"/><use transform="matrix(0.0087890625,0,0,0.0087890625,16.3125,0)" xlink:href="#Z"/><use transform="matrix(0.0087890625,0,0,0.0087890625,26.4462890625,0)" xlink:href="#Y"/><use transform="matrix(0.0087890625,0,0,0.0087890625,35.2705078125,0)" xlink:href="#Y"/><use transform="matrix(0.0087890625,0,0,0.0087890625,44.0947265625,0)" xlink:href="#ab"/><use transform="matrix(0.0087890625,0,0,0.0087890625,54,0)" xlink:href="#ah"/><use transform="matrix(0.0087890625,0,0,0.0087890625,64.6171875,0)" xlink:href="#Z"/></g><path fill="#3d4752" d="M491-632h326l-163-487zM1028 0L887-418H421L279 0H11l527-1489h248L1312 0h-284" id="ai"/><path fill="#3d4752" d="M94-547c0-294 207-569 494-569 131 0 260 50 386 150L872-811c-96-74-188-111-277-112-163-2-225 186-225 376 0 251 82 377 246 377 81 0 168-36 260-107l103 137C862-32 733 22 593 22 292 22 94-208 94-547" id="aj"/><g id="l"><use transform="matrix(0.0087890625,0,0,0.0087890625,0,0)" xlink:href="#ai"/><use transform="matrix(0.0087890625,0,0,0.0087890625,11.9091796875,0)" xlink:href="#aj"/><use transform="matrix(0.0087890625,0,0,0.0087890625,20.513671875,0)" xlink:href="#aj"/><use transform="matrix(0.0087890625,0,0,0.0087890625,29.1181640625,0)" xlink:href="#Z"/><use transform="matrix(0.0087890625,0,0,0.0087890625,39.251953125,0)" xlink:href="#Y"/><use transform="matrix(0.0087890625,0,0,0.0087890625,48.076171875,0)" xlink:href="#Y"/></g><path fill="#3d4752" d="M1152 0H835L431-519V0H168v-1580h263v869l332-383h308L654-620" id="ak"/><g id="m"><use transform="matrix(0.0087890625,0,0,0.0087890625,0,0)" xlink:href="#X"/><use transform="matrix(0.0087890625,0,0,0.0087890625,7.1015625,0)" xlink:href="#af"/><use transform="matrix(0.0087890625,0,0,0.0087890625,17.2529296875,0)" xlink:href="#ak"/><use transform="matrix(0.0087890625,0,0,0.0087890625,26.8330078125,0)" xlink:href="#Z"/><use transform="matrix(0.0087890625,0,0,0.0087890625,36.966796875,0)" xlink:href="#U"/></g><path d="M114-163C36-179 61-72 57 0H25l-1-190h30c1 12-1 29 2 39 6-27 23-49 58-41v29" id="al"/><path d="M100-194c63 0 86 42 84 106H49c0 40 14 67 53 68 26 1 43-12 49-29l28 8c-11 28-37 45-77 45C44 4 14-33 15-96c1-61 26-98 85-98zm52 81c6-60-76-77-97-28-3 7-6 17-6 28h103" id="am"/><path d="M59-47c-2 24 18 29 38 22v24C64 9 27 4 27-40v-127H5v-23h24l9-43h21v43h35v23H59v120" id="an"/><path d="M84 4C-5 8 30-112 23-190h32v120c0 31 7 50 39 49 72-2 45-101 50-169h31l1 190h-30c-1-10 1-25-2-33-11 22-28 36-60 37" id="ao"/><path d="M117-194c89-4 53 116 60 194h-32v-121c0-31-8-49-39-48C34-167 62-67 57 0H25l-1-190h30c1 10-1 24 2 32 11-22 29-35 61-36" id="ap"/><g id="n"><use transform="matrix(0.05,0,0,0.05,0,0)" xlink:href="#al"/><use transform="matrix(0.05,0,0,0.05,5.95,0)" xlink:href="#am"/><use transform="matrix(0.05,0,0,0.05,15.949999999999998,0)" xlink:href="#an"/><use transform="matrix(0.05,0,0,0.05,20.95,0)" xlink:href="#ao"/><use transform="matrix(0.05,0,0,0.05,30.950000000000003,0)" xlink:href="#al"/><use transform="matrix(0.05,0,0,0.05,36.9,0)" xlink:href="#ap"/></g><path d="M101-234c-31-9-42 10-38 44h38v23H63V0H32v-167H5v-23h27c-7-52 17-82 69-68v24" id="aq"/><path d="M141-36C126-15 110 5 73 4 37 3 15-17 15-53c-1-64 63-63 125-63 3-35-9-54-41-54-24 1-41 7-42 31l-33-3c5-37 33-52 76-52 45 0 72 20 72 64v82c-1 20 7 32 28 27v20c-31 9-61-2-59-35zM48-53c0 20 12 33 32 33 41-3 63-29 60-74-43 2-92-5-92 41" id="ar"/><path d="M24 0v-261h32V0H24" id="as"/><path d="M135-143c-3-34-86-38-87 0 15 53 115 12 119 90S17 21 10-45l28-5c4 36 97 45 98 0-10-56-113-15-118-90-4-57 82-63 122-42 12 7 21 19 24 35" id="at"/><g id="o"><use transform="matrix(0.05,0,0,0.05,0,0)" xlink:href="#aq"/><use transform="matrix(0.05,0,0,0.05,5,0)" xlink:href="#ar"/><use transform="matrix(0.05,0,0,0.05,15,0)" xlink:href="#as"/><use transform="matrix(0.05,0,0,0.05,18.95,0)" xlink:href="#at"/><use transform="matrix(0.05,0,0,0.05,27.950000000000003,0)" xlink:href="#am"/></g><g id="p"><use transform="matrix(0.013020833333333334,0,0,0.013020833333333334,0,0)" xlink:href="#M"/><use transform="matrix(0.013020833333333334,0,0,0.013020833333333334,7.799479166666667,0)" xlink:href="#Q"/><use transform="matrix(0.013020833333333334,0,0,0.013020833333333334,23.684895833333336,0)" xlink:href="#P"/><use transform="matrix(0.013020833333333334,0,0,0.013020833333333334,34.20572916666667,0)" xlink:href="#C"/><use transform="matrix(0.013020833333333334,0,0,0.013020833333333334,49.21875000000001,0)" xlink:href="#F"/><use transform="matrix(0.013020833333333334,0,0,0.013020833333333334,58.750000000000014,0)" xlink:href="#O"/><use transform="matrix(0.013020833333333334,0,0,0.013020833333333334,73.42447916666669,0)" xlink:href="#N"/><use transform="matrix(0.013020833333333334,0,0,0.013020833333333334,86.78385416666669,0)" xlink:href="#P"/><use transform="matrix(0.013020833333333334,0,0,0.013020833333333334,97.30468750000001,0)" xlink:href="#M"/><use transform="matrix(0.013020833333333334,0,0,0.013020833333333334,105.10416666666669,0)" xlink:href="#G"/><use transform="matrix(0.013020833333333334,0,0,0.013020833333333334,120.1432291666667,0)" xlink:href="#Q"/></g><path d="M1019-219V0H205v-1489h273v1270h541" id="au"/><path d="M1040 13c1 285-186 425-480 425-155 0-288-42-397-127l107-153c86 57 175 86 266 86 162 0 243-86 243-258v-81C700-18 607 20 498 20c-167 0-286-84-355-253-33-79-49-170-49-272 0-252 66-428 193-533 131-108 361-101 490 7v-64h263V13zM777-276v-551c-65-56-128-84-191-84-145 0-217 133-217 399 0 214 67 321 202 321 71 0 139-28 206-85" id="av"/><g id="q"><use transform="matrix(0.013020833333333334,0,0,0.013020833333333334,0,0)" xlink:href="#au"/><use transform="matrix(0.013020833333333334,0,0,0.013020833333333334,13.723958333333334,0)" xlink:href="#G"/><use transform="matrix(0.013020833333333334,0,0,0.013020833333333334,28.763020833333336,0)" xlink:href="#av"/><use transform="matrix(0.013020833333333334,0,0,0.013020833333333334,44.4921875,0)" xlink:href="#M"/><use transform="matrix(0.013020833333333334,0,0,0.013020833333333334,52.291666666666664,0)" xlink:href="#Q"/></g><g id="r"><use transform="matrix(0.013020833333333334,0,0,0.013020833333333334,0,0)" xlink:href="#O"/><use transform="matrix(0.013020833333333334,0,0,0.013020833333333334,14.674479166666668,0)" xlink:href="#L"/><use transform="matrix(0.013020833333333334,0,0,0.013020833333333334,23.111979166666668,0)" xlink:href="#P"/></g><g id="s"><use transform="matrix(0.013020833333333334,0,0,0.013020833333333334,0,0)" xlink:href="#L"/><use transform="matrix(0.013020833333333334,0,0,0.013020833333333334,8.4375,0)" xlink:href="#G"/><use transform="matrix(0.013020833333333334,0,0,0.013020833333333334,23.4765625,0)" xlink:href="#av"/><use transform="matrix(0.013020833333333334,0,0,0.013020833333333334,39.20572916666667,0)" xlink:href="#M"/><use transform="matrix(0.013020833333333334,0,0,0.013020833333333334,47.005208333333336,0)" xlink:href="#Q"/></g><path d="M796 469H312v-2004h484v176H574V294h222v175" id="aw"/><path d="M437 22c-177 0-283-91-283-265v-851h263v755c0 91 46 137 139 137 75 0 152-32 233-95v-797h263V0H789v-93C670-16 552 22 437 22" id="ax"/><path d="M131 469V294h222v-1653H131v-176h483V469H131" id="ay"/><g id="t"><use transform="matrix(0.008680555555555556,0,0,0.008680555555555556,0,0)" xlink:href="#aw"/><use transform="matrix(0.008680555555555556,0,0,0.008680555555555556,8.046875,0)" xlink:href="#I"/><use transform="matrix(0.008680555555555556,0,0,0.008680555555555556,16.76215277777778,0)" xlink:href="#ax"/><use transform="matrix(0.008680555555555556,0,0,0.008680555555555556,27.352430555555557,0)" xlink:href="#N"/><use transform="matrix(0.008680555555555556,0,0,0.008680555555555556,35.85069444444444,0)" xlink:href="#N"/><use transform="matrix(0.008680555555555556,0,0,0.008680555555555556,44.34895833333333,0)" xlink:href="#C"/><use transform="matrix(0.008680555555555556,0,0,0.008680555555555556,54.357638888888886,0)" xlink:href="#I"/><use transform="matrix(0.008680555555555556,0,0,0.008680555555555556,63.072916666666664,0)" xlink:href="#I"/><use transform="matrix(0.008680555555555556,0,0,0.008680555555555556,71.78819444444444,0)" xlink:href="#ay"/></g><path d="M806-1530l-66 177c-158-82-260-41-259 189v70h264v199H481V0H218v-895H19v-199h199c-9-207 32-364 147-449 126-93 294-66 441 13" id="az"/><path d="M94-505c0-321 128-611 419-611 101 0 188 30 263 91v-555h263V-1H787v-91C712-16 620 22 509 22c-171 0-293-85-364-254-34-81-51-172-51-273zm682 228v-551c-64-56-127-84-189-84-145 0-218 134-218 401 0 213 68 320 203 320 69 0 137-29 204-86" id="aA"/><g id="u"><use transform="matrix(0.008680555555555556,0,0,0.008680555555555556,0,0)" xlink:href="#aw"/><use transform="matrix(0.008680555555555556,0,0,0.008680555555555556,8.046875,0)" xlink:href="#az"/><use transform="matrix(0.008680555555555556,0,0,0.008680555555555556,14.27951388888889,0)" xlink:href="#O"/><use transform="matrix(0.008680555555555556,0,0,0.008680555555555556,24.0625,0)" xlink:href="#M"/><use transform="matrix(0.008680555555555556,0,0,0.008680555555555556,29.26215277777778,0)" xlink:href="#L"/><use transform="matrix(0.008680555555555556,0,0,0.008680555555555556,34.88715277777778,0)" xlink:href="#C"/><use transform="matrix(0.008680555555555556,0,0,0.008680555555555556,44.895833333333336,0)" xlink:href="#aA"/><use transform="matrix(0.008680555555555556,0,0,0.008680555555555556,55.37326388888889,0)" xlink:href="#ay"/></g><g id="v"><use transform="matrix(0.0087890625,0,0,0.0087890625,0,0)" xlink:href="#Y"/><use transform="matrix(0.0087890625,0,0,0.0087890625,8.82421875,0)" xlink:href="#Z"/><use transform="matrix(0.0087890625,0,0,0.0087890625,18.9580078125,0)" xlink:href="#U"/><use transform="matrix(0.0087890625,0,0,0.0087890625,29.6806640625,0)" xlink:href="#ag"/></g><g id="w"><use transform="matrix(0.0087890625,0,0,0.0087890625,0,0)" xlink:href="#V"/><use transform="matrix(0.0087890625,0,0,0.0087890625,10.6083984375,0)" xlink:href="#af"/><use transform="matrix(0.0087890625,0,0,0.0087890625,20.759765625,0)" xlink:href="#Y"/><use transform="matrix(0.0087890625,0,0,0.0087890625,29.583984375,0)" xlink:href="#X"/></g><path fill="#3d4752" d="M776-276v-550c-61-57-124-86-189-86-145 0-218 134-218 401 0 214 68 321 203 321 73 0 141-29 204-86zM94-505c0-324 124-613 416-611 109 0 201 33 277 98v-76h252V412H776V-87C709-14 620 22 509 22 243 22 94-224 94-505" id="aB"/><g id="x"><use transform="matrix(0.0087890625,0,0,0.0087890625,0,0)" xlink:href="#aa"/><use transform="matrix(0.0087890625,0,0,0.0087890625,6.8291015625,0)" xlink:href="#Z"/><use transform="matrix(0.0087890625,0,0,0.0087890625,16.962890625,0)" xlink:href="#aB"/><use transform="matrix(0.0087890625,0,0,0.0087890625,27.5712890625,0)" xlink:href="#W"/><use transform="matrix(0.0087890625,0,0,0.0087890625,38.2939453125,0)" xlink:href="#Z"/><use transform="matrix(0.0087890625,0,0,0.0087890625,48.427734375,0)" xlink:href="#Y"/><use transform="matrix(0.0087890625,0,0,0.0087890625,57.251953125,0)" xlink:href="#X"/></g><path fill="#3d4752" d="M452 0L25-1094h272l252 709 263-709h249L634 0H452" id="aC"/><path fill="#3d4752" d="M431-1094V0H168v-1094h263zm0-190H168v-296h263v296" id="aD"/><path fill="#3d4752" d="M806-1530l-66 177c-158-82-260-41-259 189v70h264v199H481V0H218v-895H19v-199h199c-9-207 32-364 147-449 126-93 294-66 441 13" id="aE"/><path fill="#3d4752" d="M421-36L25-1094h272l251 717 263-717h249L649 1c-97 251-201 366-459 445L96 279c173-62 281-167 325-315" id="aF"/><path fill="#3d4752" d="M669 468C453 236 245-116 245-520c0-243 71-485 214-726 63-106 132-205 209-296l156 95c-173 294-288 533-288 927 0 296 96 594 288 893" id="aG"/><path fill="#3d4752" d="M261 468l-155-95c385-600 383-1225 0-1821l156-94c171 195 294 406 365 634 103 331 66 641-75 939-76 161-173 306-291 437" id="aH"/><g id="y"><use transform="matrix(0.0087890625,0,0,0.0087890625,0,0)" xlink:href="#aC"/><use transform="matrix(0.0087890625,0,0,0.0087890625,9.544921875,0)" xlink:href="#Z"/><use transform="matrix(0.0087890625,0,0,0.0087890625,19.6787109375,0)" xlink:href="#aa"/><use transform="matrix(0.0087890625,0,0,0.0087890625,26.8681640625,0)" xlink:href="#aD"/><use transform="matrix(0.0087890625,0,0,0.0087890625,32.1328125,0)" xlink:href="#aE"/><use transform="matrix(0.0087890625,0,0,0.0087890625,39.005859375,0)" xlink:href="#aF"/><use transform="matrix(0.0087890625,0,0,0.0087890625,48.5419921875,0)" xlink:href="#ai"/><use transform="matrix(0.0087890625,0,0,0.0087890625,60.451171875,0)" xlink:href="#aj"/><use transform="matrix(0.0087890625,0,0,0.0087890625,69.0556640625,0)" xlink:href="#aj"/><use transform="matrix(0.0087890625,0,0,0.0087890625,77.66015625,0)" xlink:href="#af"/><use transform="matrix(0.0087890625,0,0,0.0087890625,87.8115234375,0)" xlink:href="#W"/><use transform="matrix(0.0087890625,0,0,0.0087890625,98.5341796875,0)" xlink:href="#U"/><use transform="matrix(0.0087890625,0,0,0.0087890625,109.2568359375,0)" xlink:href="#X"/><use transform="matrix(0.0087890625,0,0,0.0087890625,116.3583984375,0)" xlink:href="#aG"/><use transform="matrix(0.0087890625,0,0,0.0087890625,124.5322265625,0)" xlink:href="#aH"/></g><g id="z"><use transform="matrix(0.0087890625,0,0,0.0087890625,0,0)" xlink:href="#W"/><use transform="matrix(0.0087890625,0,0,0.0087890625,10.72265625,0)" xlink:href="#Y"/><use transform="matrix(0.0087890625,0,0,0.0087890625,19.546875,0)" xlink:href="#Z"/><use transform="matrix(0.0087890625,0,0,0.0087890625,29.6806640625,0)" xlink:href="#aa"/></g><g id="A"><use transform="matrix(0.0087890625,0,0,0.0087890625,0,0)" xlink:href="#ag"/><use transform="matrix(0.0087890625,0,0,0.0087890625,10.6083984375,0)" xlink:href="#ab"/><use transform="matrix(0.0087890625,0,0,0.0087890625,20.513671875,0)" xlink:href="#X"/><use transform="matrix(0.0087890625,0,0,0.0087890625,27.615234375,0)" xlink:href="#ab"/></g></defs></g></svg>