<svg xmlns="http://www.w3.org/2000/svg" xmlns:xlink="http://www.w3.org/1999/xlink" version="1.1" style="" xml:space="preserve" width="534" height="182"><rect id="backgroundrect" width="100%" height="100%" x="0" y="0" fill="none" stroke="none" class="" style=""/>
<style type="text/css">
	.st0{clip-path:url(#SVGID_2_);fill:#ffffff;}
	.st1{clip-path:url(#SVGID_4_);fill:#ffffff;}
	.st2{clip-path:url(#SVGID_6_);fill:#ffffff;}
	.st3{clip-path:url(#SVGID_8_);fill:#ffffff;}
	.st4{clip-path:url(#SVGID_10_);fill:#ffffff;}
</style>





<g class="currentLayer" style=""><title>Layer 1</title><g id="svg_1" class="">
	<g id="svg_2">
		<g id="svg_3">
			<defs transform="translate(-2.8999998569488525,-38) ">
				<rect id="SVGID_1_" y="31.200000762939453" width="914.5999755859375" height="193.6999969482422"/>
			</defs>
			<clipPath id="SVGID_2_" transform="translate(-2.8999998569488525,-38) ">
				<use xlink:href="#SVGID_1_" style="overflow:visible;" id="svg_4"/>
			</clipPath>
			<path class="st0" d="M384.5000001430511,110.69999999999999 v-57 c-8.5,-4.3 -13.9,-5.9 -20.2,-5.9 c-15.4,0 -23.8,12.8 -23.8,36.6 c0,25.6 5.6,36.4 18.9,36.4 C367.20000014305117,120.9 373.70000014305117,118.30000000000001 384.5000001430511,110.69999999999999 M400.40000014305116,65.4 v31.9 c0,11.7 0,16.9 0.4,23.6 l0.6000000000000001,12.1 c0.2,4.8 0.4,8.9 0.4,11.9 c0,24.5 -13,37.5 -37.5,37.5 c-11.7,0 -24.9,-3.7 -34.2,-9.3 c-1.1,-0.4 -1.3,-1.1 -1.3,-2.2 v-0.6000000000000001 c0,0 0.2,-0.2 0.4,-0.6000000000000001 l3.7,-8.5 c0.4,-0.9 0.9,-1.3 1.5,-1.3 c0.2,0 1.1,0.2 1.5,0.7000000000000001 c9.3,4.8 19.7,7.8 27.5,7.8 c16,0 22.5,-6.5 22.5,-23.2 c0,-3.3 -0.2,-6.7 -0.2,-10.6 c-0.2,-5.2 -0.4,-8 -0.4,-8.7 v-2.2 c-9.8,8 -18.9,11.5 -29.3,11.5 c-20.2,0 -32.7,-17.8 -32.7,-46.6 c0,-35.1 14.3,-54.6 39.9,-54.6 c8.1,0 13.9,1.5 21.3,5.9 v-3.5 c0,-1.9 0.4,-2.4 2.4,-2.4 h10.8 c1.7000000000000002,0 2.6,0.4 2.6,1.5 v0.9 L400.40000014305116,65.4 z" id="svg_5"/>
		</g>
	</g>
</g><g id="svg_6" class="">
	<g id="svg_7">
		<g id="svg_8">
			<defs transform="translate(-2.8999998569488525,-38) ">
				<rect id="SVGID_3_" y="31.200000762939453" width="914.5999755859375" height="193.6999969482422"/>
			</defs>
			<clipPath id="SVGID_4_" transform="translate(-2.8999998569488525,-38) ">
				<use xlink:href="#SVGID_3_" style="overflow:visible;" id="svg_9"/>
			</clipPath>
			<path class="st1" d="M433.0000001430511,44.599999999999994 C443.30000014305114,37 451.10000014305115,34 460.40000014305116,34 c10,0 16.5,3.9 20.2,12.4 c12.6,-8.9 21,-12.4 30.8,-12.4 c16,0 22.8,8.7 22.8,29.7 v72 c0,2 -0.4,2.4 -2.4,2.4 h-10.8 c-2.2,0 -2.6,-0.4 -2.6,-2.4 v-72.6 c0,-10.6 -4.1,-15.4 -13.4,-15.4 c-6.7,0 -11.9,1.9 -21.5,8.5 v79.5 v0.9 c0,1.1 -0.6000000000000001,1.5 -2.4,1.5 h-10.8 c-2,0 -2.4,-0.4 -2.4,-2.4 v-72.4 c0,-10.4 -4.6,-15.6 -13.7,-15.6 c-6.7,0 -12.6,2.4 -21,8.9 v79.1 c0,1.9 -0.4,2.4 -2.4,2.4 h-10.8 c-1.7000000000000002,0 -2.6,-0.4 -2.6,-1.5 v-0.9 V60 l-0.1,-23.7 c0,-2 0.4,-2.4 2.4,-2.4 h10.8 c1.7000000000000002,0 2.6,0.4 2.6,1.5 v0.9 L433.0000001430511,44.599999999999994 z" id="svg_10"/>
		</g>
	</g>
</g><g id="svg_11" class="">
	<g id="svg_12">
		<g id="svg_13">
			<defs transform="translate(-2.8999998569488525,-38) ">
				<rect id="SVGID_5_" y="31.200000762939453" width="914.5999755859375" height="193.6999969482422"/>
			</defs>
			<clipPath id="SVGID_6_" transform="translate(-2.8999998569488525,-38) ">
				<use xlink:href="#SVGID_5_" style="overflow:visible;" id="svg_14"/>
			</clipPath>
			<path class="st2" d="M208.50000014305115,44.8 c10.3,-7.6 18.1,-10.6 27.4,-10.6 c10,0 16.5,3.9 20.2,12.4 c12.6,-8.9 21,-12.4 30.8,-12.4 c16,0 22.8,8.7 22.8,29.7 v72 c0,1.9 -0.4,2.4 -2.4,2.4 h-10.8 c-2.2,0 -2.6,-0.4 -2.6,-2.4 v-72.6 c0,-10.6 -4.1,-15.4 -13.4,-15.4 c-6.7,0 -11.9,2 -21.5,8.5 v79.5 v0.9 c0,1.1 -0.6000000000000001,1.5 -2.4,1.5 h-10.8 c-2,0 -2.4,-0.4 -2.4,-2.4 v-72.4 c0,-10.4 -4.6,-15.6 -13.7,-15.6 c-6.7,0 -12.6,2.4 -21,8.9 v79.1 c0,1.9 -0.4,2.4 -2.4,2.4 h-10.8 c-1.7000000000000002,0 -2.6,-0.4 -2.6,-1.5 v-0.9 V60.2 l-0.1,-23.7 c0,-2 0.4,-2.4 2.4,-2.4 h10.8 c1.7000000000000002,0 2.6,0.4 2.6,1.5 v0.9 L208.50000014305115,44.8 z" id="svg_15"/>
		</g>
	</g>
</g><g id="svg_16" class="">
	<g id="svg_17">
		<g id="svg_18">
			<defs transform="translate(-2.8999998569488525,-38) ">
				<rect id="SVGID_7_" y="32" width="914.5999755859375" height="193.6999969482422"/>
			</defs>
			<clipPath id="SVGID_8_" transform="translate(-2.8999998569488525,-38) ">
				<use xlink:href="#SVGID_7_" style="overflow:visible;" id="svg_19"/>
			</clipPath>
			<path class="st3" d="M97.30000014305115,117.5 c0,-1.2 -0.6000000000000001,-1.8 -1.8,-1.8 c-54.5,0 -56.9,0 -63.8,0 s-9.7,-4.5 -9.7,-10 s0,-69.9 0,-69.9 c0,-1.2 -0.6000000000000001,-1.8 -1.8,-1.8 L1.8000001430511476,34 c-1.2,0 -1.8,0.6000000000000001 -1.8,1.8 c0,54.5 0,60.6 0,65.7 l0,0 V113 c0,16.3 7.4,24.7 24.8,24.7 c2.4,0 70.7,0 70.7,0 c1.2,0 1.8,-0.6000000000000001 1.8,-1.8 V117.5 z" id="svg_20"/>
		</g>
	</g>
</g><g id="svg_21" class="">
	<g id="svg_22">
		<g id="svg_23">
			<defs transform="translate(-2.8999998569488525,-38) ">
				<rect id="SVGID_9_" y="32" width="914.5999755859375" height="193.6999969482422"/>
			</defs>
			<clipPath id="SVGID_10_" transform="translate(-2.8999998569488525,-38) ">
				<use xlink:href="#SVGID_9_" style="overflow:visible;" id="svg_24"/>
			</clipPath>
			<path class="st4" d="M40.10000014305115,20.200000000000003 c0,1.2 0.6000000000000001,1.8 1.8,1.8 c54.5,0 56.9,0 63.8,0 s9.7,4.5 9.7,10 s0,69.9 0,69.9 c0,1.2 0.6000000000000001,1.8 1.8,1.8 h18.4 c1.2,0 1.8,-0.6000000000000001 1.8,-1.8 c0,-54.5 0,-60.6 0,-65.7 l0,0 V24.700000000000003 c0,-16.3 -7.4,-24.7 -24.8,-24.7 c-2.4,0 -70.7,0 -70.7,0 c-1.2,0 -1.8,0.6000000000000001 -1.8,1.8 L40.10000014305115,20.200000000000003 z" id="svg_25"/>
		</g>
	</g>
</g></g></svg>